<?xml version="1.0" encoding="UTF-8" standalone="no"?>
<svg
   version="1.0"
   width="280pt"
   height="180pt"
   viewBox="-7 -4 280 180"
   preserveAspectRatio="xMidYMid"
   id="svg419"
   sodipodi:docname="ssm_logo_new_256.svg"
   inkscape:export-filename="..\..\..\Personal\Development\SSMCloud\public\images\ssm_logo256.svg"
   inkscape:export-xdpi="122.88"
   inkscape:export-ydpi="122.88"
   xmlns:inkscape="http://www.inkscape.org/namespaces/inkscape"
   xmlns:sodipodi="http://sodipodi.sourceforge.net/DTD/sodipodi-0.dtd"
   xmlns="http://www.w3.org/2000/svg"
   xmlns:svg="http://www.w3.org/2000/svg">
  <defs
     id="defs423">
    <filter
       style="color-interpolation-filters:sRGB"
       inkscape:label="Drop Shadow"
       id="filter3612"
       x="-0.055217758"
       y="-0.17438044"
       width="1.1104355"
       height="1.3487608">
      <feFlood
         flood-opacity="0.498039"
         flood-color="rgb(0,0,0)"
         result="flood"
         id="feFlood3602" />
      <feComposite
         in="flood"
         in2="SourceGraphic"
         operator="in"
         result="composite1"
         id="feComposite3604" />
      <feGaussianBlur
         in="composite1"
         stdDeviation="5"
         result="blur"
         id="feGaussianBlur3606" />
      <feOffset
         dx="0"
         dy="0"
         result="offset"
         id="feOffset3608" />
      <feComposite
         in="SourceGraphic"
         in2="offset"
         operator="over"
         result="composite2"
         id="feComposite3610" />
    </filter>
    <filter
       style="color-interpolation-filters:sRGB"
       inkscape:label="Drop Shadow"
       id="filter3612-2"
       x="-0.09680216"
       y="-0.44840685"
       width="1.1936044"
       height="1.8968138">
      <feFlood
         flood-opacity="0.498039"
         flood-color="rgb(0,0,0)"
         result="flood"
         id="feFlood3602-4" />
      <feComposite
         in="flood"
         in2="SourceGraphic"
         operator="in"
         result="composite1"
         id="feComposite3604-9" />
      <feGaussianBlur
         in="composite1"
         stdDeviation="5"
         result="blur"
         id="feGaussianBlur3606-5" />
      <feOffset
         dx="0"
         dy="0"
         result="offset"
         id="feOffset3608-0" />
      <feComposite
         in="SourceGraphic"
         in2="offset"
         operator="over"
         result="composite2"
         id="feComposite3610-8" />
    </filter>
  </defs>
  <sodipodi:namedview
     id="namedview421"
     pagecolor="#ffffff"
     bordercolor="#000000"
     borderopacity="0.25"
     inkscape:showpageshadow="2"
     inkscape:pageopacity="0.0"
     inkscape:pagecheckerboard="0"
     inkscape:deskcolor="#d1d1d1"
     inkscape:document-units="pt"
     showgrid="false"
     showguides="false" />
  <g
     transform="matrix(0.1,0,0,-0.1,-16.622853,235.19592)"
     fill="#000000"
     stroke="none"
     id="g417"
     style="fill:#00aadd;fill-opacity:1">
    <path
       d="m 1692,2290 c -156,-21 -276,-83 -395,-202 l -88,-88 -70,21 c -146,44 -305,11 -418,-87 -57,-49 -116,-141 -132,-205 -13,-49 -15,-51 -87,-86 -180,-88 -294,-284 -278,-478 19,-242 197,-426 439,-456 51,-6 390,-9 892,-7 804,3 810,3 875,25 199,68 330,232 346,436 15,186 -88,377 -253,468 -55,29 -64,39 -69,69 -29,169 -87,283 -199,396 -63,64 -98,89 -165,122 -135,66 -266,90 -398,72 z"
       id="path415"
       style="fill:#00aadd;fill-opacity:1;stroke:#0084ab;stroke-width:112.5;stroke-dasharray:none;stroke-opacity:1" />
  </g>
  <text
     xml:space="preserve"
     style="font-style:normal;font-variant:normal;font-weight:normal;font-stretch:normal;font-size:108px;font-family:'Hemi Head';-inkscape-font-specification:'Hemi Head';white-space:pre;inline-size:261.229;fill:#ffffff;fill-opacity:1;stroke:#000000;stroke-width:1.5;stroke-dasharray:none;stroke-opacity:0.5;filter:url(#filter3612)"
     x="75"
     y="145.86865"
     id="text3286"
     inkscape:label="text3286"
     transform="translate(-62.690853,-32.706623)"><tspan
       x="75"
       y="145.86865"
       id="tspan5527">SSM</tspan></text>
  <text
     xml:space="preserve"
     style="font-style:normal;font-variant:normal;font-weight:normal;font-stretch:normal;font-size:42px;font-family:'Hemi Head';-inkscape-font-specification:'Hemi Head';white-space:pre;inline-size:261.229;fill:#ffffff;fill-opacity:1;stroke:#000000;stroke-width:1.5;stroke-dasharray:none;stroke-opacity:0.5;filter:url(#filter3612-2)"
     x="75"
     y="145.86865"
     id="text3286-2"
     inkscape:label="text3286"
     transform="translate(-10.419015,5.1098443)"><tspan
       x="75"
       y="145.86865"
       id="tspan5529">CLOUD</tspan></text>
</svg>
