<?xml version="1.0" standalone="no"?>
<!DOCTYPE svg PUBLIC "-//W3C//DTD SVG 20010904//EN"
 "http://www.w3.org/TR/2001/REC-SVG-20010904/DTD/svg10.dtd">
<svg version="1.0" xmlns="http://www.w3.org/2000/svg"
 width="256.000000pt" height="256.000000pt" viewBox="0 0 256.000000 256.000000"
 preserveAspectRatio="xMidYMid meet">
<metadata>
Created by potrace 1.14, written by Peter Selinger 2001-2017
</metadata>
<g transform="translate(0.000000,256.000000) scale(0.100000,-0.100000)"
fill="#000000" stroke="none">
<path d="M1465 2071 c-156 -26 -271 -86 -389 -204 -60 -60 -94 -86 -104 -82
-82 31 -118 37 -205 33 -77 -3 -103 -9 -159 -35 -116 -55 -197 -145 -238 -267
-20 -60 -21 -61 -90 -94 -166 -78 -281 -262 -279 -447 2 -232 168 -432 398
-481 53 -11 218 -14 871 -14 504 0 829 4 870 10 99 16 201 69 274 142 232 232
178 613 -109 779 -52 31 -61 40 -68 75 -23 106 -63 211 -107 278 -90 138 -245
251 -398 290 -76 20 -199 28 -267 17z m-499 -691 l-10 -50 -155 -2 -156 -3
-11 -55 c-6 -30 -9 -58 -7 -62 2 -5 62 -8 133 -8 175 0 176 -2 141 -161 -35
-161 -32 -159 -279 -159 -179 0 -193 1 -188 18 3 9 8 34 12 55 l6 37 154 0
c172 0 165 -3 179 78 l7 42 -136 0 c-133 0 -136 0 -152 25 -15 22 -14 32 7
132 18 86 29 114 50 136 l27 27 194 0 195 0 -11 -50z m520 0 l-10 -50 -155 -2
-156 -3 -11 -55 c-6 -30 -9 -58 -7 -62 2 -5 62 -8 133 -8 175 0 176 -2 141
-161 -35 -161 -32 -159 -279 -159 -179 0 -193 1 -188 18 3 9 8 34 12 55 l6 37
154 0 c172 0 165 -3 179 78 l7 42 -136 0 c-133 0 -136 0 -152 25 -15 22 -14
32 7 132 18 86 29 114 50 136 l27 27 194 0 195 0 -11 -50z m239 18 c3 -18 18
-100 33 -183 15 -82 31 -150 34 -150 4 0 57 81 117 180 l109 180 67 3 c52 2
66 0 63 -10 -3 -7 -29 -131 -59 -275 l-54 -263 -51 0 -51 0 27 128 c15 70 30
143 34 162 5 24 -23 -16 -91 -128 l-98 -162 -50 2 -50 3 -31 160 -30 160 -17
-70 c-8 -38 -24 -112 -33 -162 l-18 -93 -54 0 c-39 0 -53 3 -50 13 3 6 29 130
59 274 l54 263 67 0 67 0 6 -32z m-647 -610 c-3 -7 -21 -14 -41 -16 -20 -2
-37 -9 -37 -15 0 -7 -3 -22 -6 -34 -6 -20 -3 -23 25 -23 21 0 31 -5 31 -16 0
-12 -10 -14 -47 -12 -53 3 -55 7 -32 91 10 37 10 37 60 37 36 0 49 -4 47 -12z
m48 -13 c-3 -14 -9 -36 -12 -50 -6 -23 -3 -25 26 -25 51 0 30 -25 -24 -28 -47
-3 -47 -3 -40 25 19 87 26 103 40 103 12 0 15 -6 10 -25z m194 13 c0 -7 -6
-35 -13 -63 l-13 -50 -55 0 c-60 0 -61 2 -38 88 l10 37 54 0 c38 0 55 -4 55
-12z m46 -5 c-2 -10 -7 -33 -11 -50 -6 -30 -5 -33 19 -33 20 0 27 7 35 38 6
20 11 43 11 50 0 6 7 12 15 12 18 0 18 -10 2 -75 l-13 -50 -55 0 c-52 0 -54 1
-51 25 8 58 23 100 38 100 10 0 14 -6 10 -17z m216 -28 c-5 -66 -24 -85 -83
-85 -43 0 -50 2 -45 18 2 9 7 32 11 50 4 19 13 32 22 32 12 0 14 -7 9 -35 -6
-32 -5 -35 18 -35 19 0 27 7 32 25 9 38 -2 55 -36 55 -16 0 -30 5 -30 11 0 6
21 9 53 7 l52 -3 -3 -40z"/>
<path d="M1236 772 c-2 -4 -7 -24 -11 -45 -7 -33 -5 -37 14 -37 22 0 41 33 41
71 0 19 -33 28 -44 11z"/>
</g>
</svg>
